<svg width="24" height="24" viewBox="0 0 24 24" fill="none" xmlns="http://www.w3.org/2000/svg">
<path fill-rule="evenodd" clip-rule="evenodd" d="M12 24C18.6274 24 24 18.6274 24 12C24 5.37258 18.6274 0 12 0C5.37258 0 0 5.37258 0 12C0 18.6274 5.37258 24 12 24Z" fill="#A6DBFF"/>
<mask id="mask0" mask-type="alpha" maskUnits="userSpaceOnUse" x="0" y="0" width="24" height="24">
<path fill-rule="evenodd" clip-rule="evenodd" d="M12 24C18.6274 24 24 18.6274 24 12C24 5.37258 18.6274 0 12 0C5.37258 0 0 5.37258 0 12C0 18.6274 5.37258 24 12 24Z" fill="white"/>
</mask>
<g mask="url(#mask0)">
<path d="M9.28467 7.26651C9.28467 7.26651 12.5171 6.72638 13.7091 5.41698C14.7864 4.22214 14.7702 2.88 14.7702 2.88" stroke="#2150B7" stroke-width="0.654702" stroke-linecap="round" stroke-linejoin="round"/>
<path d="M12.6641 3.37097C12.6641 3.37097 13.3824 6.12088 11.7335 7.92131" stroke="#2150B7" stroke-width="0.654702" stroke-linecap="round" stroke-linejoin="round"/>
<path d="M11.211 4.68042C11.211 4.68042 11.5212 5.679 11.0804 6.61195" stroke="#2150B7" stroke-width="0.654702" stroke-linecap="round" stroke-linejoin="round"/>
<path fill-rule="evenodd" clip-rule="evenodd" d="M13.7246 22.2827C13.7246 22.2827 16.1514 21.4101 15.4148 21.6242C14.9501 21.7593 14.4416 21.9258 14.0185 22.1095C13.0716 22.5187 13.1369 23.7624 13.8389 24.1882C14.5409 24.6301 17.4469 24.6954 18.3936 23.5169C20.2059 21.5037 17.1367 16.0044 17.1367 16.0044C17.1367 16.0044 16.402 15.3824 13.7246 15.0385C11.0636 14.695 8.53309 16.3645 8.53309 16.3645C8.53309 16.3645 6.96568 17.5593 5.82289 21.471C5.00661 24.2535 8.30454 24.0245 8.30454 24.0245C8.30454 24.0245 9.33289 25.7265 11.3248 25.6774C13.7408 25.6285 15.0144 25.2029 15.8796 24.5155C15.8796 24.5155 14.0564 24.4437 13.6518 24.0245C13.3381 23.6994 13.7246 22.2827 13.7246 22.2827Z" fill="#91D5FF"/>
<path fill-rule="evenodd" clip-rule="evenodd" d="M17.9263 17.2453C17.9263 17.2453 18.8569 15.6249 18.0243 15.0357C17.1752 14.4301 17.5182 14.4954 17.306 13.8245C16.8815 12.7934 15.6571 12.5806 15.6571 12.5806C15.6571 12.5806 14.1878 12.4822 12.9634 12.5806C11.739 12.6788 9.6003 13.579 9.6003 13.579C9.6003 13.579 6.95556 15.5267 9.22481 16.5252C10.335 17.5234 11.0696 18.6038 11.0696 18.6038C11.0696 18.6038 15.6408 15.1176 17.306 16.0503L17.9263 17.2453Z" fill="#43BCFF"/>
<path fill-rule="evenodd" clip-rule="evenodd" d="M12.6759 9.42702C16.2675 10.2781 15.288 6.64453 15.288 6.64453C15.288 6.64453 15.0104 6.87351 5.18243 10.5891C4.08862 13.0442 9.65564 13.1261 9.65564 13.1261L9.47606 15.5812L11.0596 17.709C11.0596 17.709 12.2466 16.4574 13.6204 15.4017C14.4194 14.7878 15.4204 14.2413 15.9247 14.0427L14.439 9.49232" fill="#D7F0FF"/>
<path fill-rule="evenodd" clip-rule="evenodd" d="M15.288 6.64453C15.288 6.64453 15.0104 6.87351 5.18243 10.5891C4.08862 13.0442 9.65564 13.1261 9.65564 13.1261L9.47606 15.5812L11.0401 17.7669C11.0401 17.7669 12.6297 16.0557 13.7402 15.2395C14.8508 14.4234 16.1288 14.0272 16.1288 14.0272L14.5216 9.42607C14.5216 9.42607 15.1094 8.91178 15.2061 8.62456C15.5461 7.61444 15.288 6.64453 15.288 6.64453Z" fill="white"/>
<path d="M12.6759 9.42702C16.2675 10.2781 15.288 6.64453 15.288 6.64453C15.288 6.64453 15.0104 6.87351 5.18243 10.5891C4.08862 13.0442 9.65564 13.1261 9.65564 13.1261L9.47606 15.5812" stroke="#2150B7" stroke-width="0.5" stroke-linecap="round" stroke-linejoin="round"/>
<path d="M16.37 14.0099C14.264 14.1083 10.9989 17.8072 10.9989 17.8072L9.28467 15.3848" stroke="#2150B7" stroke-width="0.5" stroke-linecap="round" stroke-linejoin="round"/>
<path d="M9.6003 13.6826C9.6003 13.6826 6.95556 15.6304 9.22481 16.6288C10.5472 17.9056 11.0696 18.7075 11.0696 18.7075C11.0696 18.7075 15.7714 14.7465 17.7957 16.1543" stroke="#2150B7" stroke-width="0.5" stroke-linecap="round" stroke-linejoin="round"/>
<path d="M8.5041 16.3014C8.5041 16.3014 6.82257 17.4637 5.79406 21.4081C5.09222 24.1087 8.27571 23.9616 8.27571 23.9616" stroke="#2150B7" stroke-width="0.5" stroke-linecap="round" stroke-linejoin="round"/>
<path d="M6.83582 21.1145C6.83582 21.1145 8.22349 20.6562 8.77856 22.1456" stroke="#2150B7" stroke-width="0.5" stroke-linecap="round" stroke-linejoin="round"/>
<path fill-rule="evenodd" clip-rule="evenodd" d="M10.101 19.9022H12.9416L12.4847 24.6815H10.5744L10.101 19.9022Z" fill="white"/>
<path fill-rule="evenodd" clip-rule="evenodd" d="M10.101 19.9022H12.9416L12.4847 24.6815H10.5744L10.101 19.9022Z" stroke="#2150B7" stroke-width="0.5" stroke-linecap="round" stroke-linejoin="round"/>
<path d="M8.94185 19.2476L8.79492 22.1611" stroke="#2150B7" stroke-width="0.5" stroke-linecap="round" stroke-linejoin="round"/>
<path fill-rule="evenodd" clip-rule="evenodd" d="M6.83701 23.5469C6.83701 23.5469 6.77187 22.6631 7.60431 22.3357C8.92668 21.8284 10.2002 22.7611 10.2327 23.8578C10.2654 24.9708 9.20422 24.8236 8.81257 24.6272C8.42059 24.4472 8.30631 23.8907 7.81654 23.9887C7.34326 24.1033 6.88599 24.1033 6.83701 23.5469Z" fill="#E6F7FF"/>
<path fill-rule="evenodd" clip-rule="evenodd" d="M6.83701 23.5469C6.83701 23.5469 6.77187 22.6631 7.60431 22.3357C8.92668 21.8284 10.2002 22.7611 10.2327 23.8578C10.2654 24.9708 9.20422 24.8236 8.81257 24.6272C8.42059 24.4472 8.30631 23.8907 7.81654 23.9887C7.34326 24.1033 6.88599 24.1033 6.83701 23.5469Z" stroke="#2150B7" stroke-width="0.5" stroke-linecap="round" stroke-linejoin="round"/>
<path fill-rule="evenodd" clip-rule="evenodd" d="M10.1009 10.2454C10.1009 10.4255 9.95397 10.5728 9.77439 10.5728C9.59464 10.5728 9.44788 10.4255 9.44788 10.2454C9.44788 10.0652 9.59464 9.91809 9.77439 9.91809C9.95397 9.91809 10.1009 10.049 10.1009 10.2454Z" fill="#2150B7"/>
<path d="M14.6288 9.5033L16.0703 13.9723" stroke="#2150B7" stroke-width="0.5" stroke-linecap="round" stroke-linejoin="round"/>
<path d="M17.1931 16.1377C17.1931 16.1377 20.2623 21.539 18.4501 23.5524C17.5032 24.7307 14.5975 24.6488 13.8955 24.2233C13.1933 23.7813 13.1282 22.5538 14.0749 22.1446C15.185 21.6536 16.8341 21.31 16.8341 21.31" stroke="#2150B7" stroke-width="0.5" stroke-linecap="round" stroke-linejoin="round"/>
<path d="M15.7822 21.539L15.6516 19.7385" stroke="#2150B7" stroke-width="0.5" stroke-linecap="round" stroke-linejoin="round"/>
<path d="M15.6516 12.7006C15.6516 12.7006 16.8925 12.9135 17.3007 13.9447C17.5127 14.5994 17.1862 14.5503 18.0188 15.1557C18.8678 15.7613 17.9209 17.2671 17.9209 17.2671" stroke="#2150B7" stroke-width="0.5" stroke-linecap="round" stroke-linejoin="round"/>
<path fill-rule="evenodd" clip-rule="evenodd" d="M13.4923 22.259L12.7576 21.8663C12.7576 21.8663 13.1333 22.6847 11.2883 22.7828C10.5374 22.8155 10.4557 24.1413 11.8434 24.4522C13.9169 24.8943 14.831 23.1919 13.4923 22.259Z" fill="#E6F7FF"/>
<path fill-rule="evenodd" clip-rule="evenodd" d="M13.4923 22.259L12.7576 21.8663C12.7576 21.8663 13.1333 22.6847 11.2883 22.7828C10.5374 22.8155 10.4557 24.1413 11.8434 24.4522C13.9169 24.8943 14.831 23.1919 13.4923 22.259Z" stroke="#2150B7" stroke-width="0.5" stroke-linecap="round" stroke-linejoin="round"/>
</g>
</svg>
