<svg width="12" height="16" viewBox="0 0 12 16" fill="none" xmlns="http://www.w3.org/2000/svg">
<mask id="mask0" mask-type="alpha" maskUnits="userSpaceOnUse" x="0" y="0" width="12" height="16">
<path fill-rule="evenodd" clip-rule="evenodd" d="M0.0032959 0V16H11.9903V0L0.0032959 0Z" fill="white"/>
</mask>
<g mask="url(#mask0)">
<path fill-rule="evenodd" clip-rule="evenodd" d="M11.4285 13.0001H10.9914V5.99999C10.9914 3.42813 9.05286 1.31096 6.55869 1.03127V0.56252C6.55869 0.251543 6.30742 0 5.99678 0C5.68622 0 5.43487 0.251543 5.43487 0.56252V1.03127C2.94072 1.31096 1.00219 3.42813 1.00219 5.99999V13.0001H0.565206C0.254567 13.0001 0.0032959 13.2516 0.0032959 13.5625C0.0032959 13.8735 0.254567 14.125 0.565206 14.125H4.87306V14.8751C4.87306 15.4969 5.37558 16 5.99678 16C6.61798 16 7.1206 15.4969 7.1206 14.8751V14.125H11.4285C11.739 14.125 11.9903 13.8735 11.9903 13.5625C11.9903 13.2516 11.739 13.0001 11.4285 13.0001ZM9.86761 13.0001H2.12598V5.99999C2.12598 3.85942 3.85849 2.12502 5.99674 2.12502C8.13509 2.12502 9.86761 3.85942 9.86761 5.99999V13.0001Z" fill="#696969"/>
</g>
</svg>
