<svg width="29" height="24" viewBox="0 0 29 24" fill="none" xmlns="http://www.w3.org/2000/svg">
<path fill-rule="evenodd" clip-rule="evenodd" d="M26.2547 0H15.4715C14.9089 0 14.4091 0.254108 14.065 0.647928C13.7209 0.254108 13.2211 0 12.6585 0H1.87533C0.841087 0 0 0.841087 0 1.87533V20.1598C0 21.1941 0.841087 22.0352 1.87533 22.0352H12.1897C12.7321 22.0352 13.5962 22.6789 13.5962 23.4417C13.5962 23.7009 13.8062 23.9105 14.065 23.9105C14.3238 23.9105 14.5338 23.7009 14.5338 23.4417C14.5338 22.6789 15.3979 22.0352 15.9403 22.0352H26.2547C27.2889 22.0352 28.13 21.1941 28.13 20.1598V1.87533C28.13 0.841087 27.2889 0 26.2547 0ZM13.5962 21.6409C13.1705 21.3015 12.6585 21.0975 12.1897 21.0975H1.87535C1.35823 21.0975 0.937683 20.677 0.937683 20.1598V1.87535C0.937683 1.35823 1.35823 0.937683 1.87535 0.937683H12.6585C13.1756 0.937683 13.5962 1.35823 13.5962 1.87535V21.6409ZM26.2546 21.0975C26.7718 21.0975 27.1923 20.677 27.1923 20.1598V1.87535C27.1923 1.35823 26.7718 0.937683 26.2546 0.937683H15.4715C14.9544 0.937683 14.5338 1.35823 14.5338 1.87535V21.6409C14.9595 21.3019 15.4715 21.0975 15.9403 21.0975H26.2546Z" fill="#5DC68E"/>
</svg>
