<svg width="25" height="27" viewBox="0 0 25 27" fill="none" xmlns="http://www.w3.org/2000/svg">
<path fill-rule="evenodd" clip-rule="evenodd" d="M20.9324 1.74437H23.9851C24.2262 1.74437 24.4212 1.9393 24.4212 2.18046V6.97748V25.7295C24.4212 25.9706 24.2262 26.1656 23.9851 26.1656H0.436092C0.194933 26.1656 0 25.9706 0 25.7295V6.97748V2.18046C0 1.9393 0.194933 1.74437 0.436092 1.74437H3.48874V0.436092C3.48874 0.194933 3.68367 0 3.92483 0H6.97748C7.21864 0 7.41357 0.194933 7.41357 0.436092V1.74437H17.0076V0.436092C17.0076 0.194933 17.2025 0 17.4437 0H20.4963C20.7375 0 20.9324 0.194933 20.9324 0.436092V1.74437ZM20.0602 0.872147H17.8798V2.18042V3.4887H20.0602V2.18042V0.872147ZM4.36072 0.872147H6.54118V2.18042V3.4887H4.36072V2.18042V0.872147ZM3.48875 2.61656H0.872192V6.54139H23.549V2.61656H20.9324V3.92484C20.9324 4.166 20.7375 4.36093 20.4964 4.36093H17.4437C17.2025 4.36093 17.0076 4.166 17.0076 3.92484V2.61656H7.41358V3.92484C7.41358 4.166 7.21865 4.36093 6.97749 4.36093H3.92484C3.68368 4.36093 3.48875 4.166 3.48875 3.92484V2.61656ZM0.872192 25.2934V7.41362H23.549V25.2934H0.872192ZM12.6468 10.0302H15.6994H16.5716H20.4964V13.955V14.8272V17.8799V18.752V22.6769H16.5716H15.6994H12.6468H11.7746H8.72194H7.84976H3.92493V18.752V17.8799V14.8272V13.955V10.0302H7.84976H8.72194H11.7746H12.6468ZM15.6994 10.9024H12.6467V13.955H15.6994V10.9024ZM15.6994 17.8798H12.6467V14.8272H15.6994V17.8798ZM11.7747 14.8272H8.72205V17.8798H11.7747V14.8272ZM8.72205 10.9024H11.7747V13.955H8.72205V10.9024ZM7.84977 10.9024H4.79712V13.955H7.84977V10.9024ZM4.79712 14.8272H7.84977V17.8798H4.79712V14.8272ZM4.79712 21.8047H7.84977V18.7521H4.79712V21.8047ZM11.7747 21.8047H8.72205V18.7521H11.7747V21.8047ZM12.6467 21.8047H15.6994V18.7521H12.6467V21.8047ZM19.6243 21.8047H16.5717V18.7521H19.6243V21.8047ZM16.5717 17.8798H19.6243V14.8272H16.5717V17.8798ZM19.6243 10.9024V13.955H16.5717V10.9024H19.6243Z" fill="#1FC5ED"/>
</svg>
