<svg width="29" height="17" viewBox="0 0 29 17" fill="none" xmlns="http://www.w3.org/2000/svg">
<path fill-rule="evenodd" clip-rule="evenodd" d="M14.807 14.0292C16.1139 12.5411 16.9062 10.5899 16.9062 8.45308C16.9062 6.31629 16.1139 4.36505 14.807 2.87697C16.1095 1.73827 17.8135 1.04784 19.6769 1.04784C23.7628 1.04784 27.0822 4.36719 27.0822 8.45308C27.0822 12.539 23.7558 15.8583 19.6769 15.8583C17.8135 15.8583 16.1095 15.1679 14.807 14.0292ZM14.065 14.7754C12.5725 16.1011 10.6071 16.9062 8.45308 16.9062C3.78349 16.9062 0 13.1227 0 8.45308C0 3.78349 3.78349 0 8.45308 0C10.6071 0 12.5725 0.805041 14.065 2.13075C15.5575 0.805041 17.523 0 19.6769 0C24.3465 0 28.13 3.78349 28.13 8.45308C28.13 13.1227 24.3465 16.9062 19.6769 16.9062C17.523 16.9062 15.5575 16.1011 14.065 14.7754ZM13.323 14.0292C12.0206 15.1679 10.3165 15.8583 8.45308 15.8583C4.36719 15.8583 1.04784 12.539 1.04784 8.45308C1.04784 4.36719 4.36719 1.04784 8.45308 1.04784C10.3165 1.04784 12.0206 1.73828 13.323 2.87697C12.0161 4.36505 11.2239 6.31629 11.2239 8.45308C11.2239 10.5899 12.0161 12.5411 13.323 14.0292ZM14.065 13.2817C12.9477 11.9847 12.2717 10.2969 12.2717 8.45308C12.2717 6.60924 12.9477 4.9215 14.065 3.62447C15.1823 4.9215 15.8583 6.60924 15.8583 8.45308C15.8583 10.2969 15.1823 11.9847 14.065 13.2817Z" fill="#FF4958"/>
</svg>
