<svg width="20" height="21" viewBox="0 0 20 21" fill="none" xmlns="http://www.w3.org/2000/svg">
<path id="Clip 19" fill-rule="evenodd" clip-rule="evenodd" d="M10.0979 2.72742C12.6286 2.72742 12.9285 2.73729 13.928 2.78485C14.8521 2.82883 15.354 2.98992 15.6879 3.12498C16.1304 3.30402 16.4462 3.51806 16.7779 3.86312C17.1092 4.20863 17.3147 4.53755 17.4866 4.99838C17.6163 5.34614 17.771 5.86889 17.8132 6.83139C17.8589 7.87242 17.8684 8.18472 17.8684 10.8205C17.8684 13.4563 17.8589 13.7686 17.8132 14.8096C17.771 15.7721 17.6163 16.2949 17.4866 16.6426C17.3147 17.1034 17.1092 17.4324 16.7779 17.7779C16.4462 18.1229 16.1304 18.337 15.6879 18.516C15.354 18.6515 14.8521 18.8122 13.928 18.8561C12.9285 18.9037 12.6291 18.9136 10.0979 18.9136C7.56684 18.9136 7.26741 18.9037 6.26789 18.8561C5.34377 18.8122 4.84185 18.6515 4.50796 18.516C4.0655 18.337 3.74971 18.1229 3.41797 17.7779C3.08666 17.4324 2.88116 17.1034 2.70926 16.6426C2.57915 16.2949 2.42491 15.7721 2.38269 14.8096C2.33702 13.7686 2.32755 13.4563 2.32755 10.8205C2.32755 8.18472 2.33702 7.87242 2.38269 6.83139C2.42491 5.86889 2.57915 5.34614 2.70926 4.99838C2.88116 4.53755 3.08666 4.20863 3.41797 3.86312C3.74971 3.51806 4.0655 3.30402 4.50796 3.12498C4.84185 2.98992 5.34377 2.82883 6.26789 2.78485C7.26741 2.73729 7.56727 2.72742 10.0979 2.72742ZM10.098 0.94873C7.52376 0.94873 7.20107 0.959948 6.18992 1.00796C5.18135 1.05597 4.49246 1.2229 3.8893 1.467C3.26589 1.71918 2.73727 2.05662 2.21037 2.6054C1.68346 3.15463 1.35948 3.70476 1.11736 4.35405C0.882987 4.98226 0.722719 5.69976 0.67662 6.75021C0.630522 7.80335 0.619751 8.13944 0.619751 10.8205C0.619751 13.5016 0.630522 13.8377 0.67662 14.8908C0.722719 15.9413 0.882987 16.6588 1.11736 17.287C1.35948 17.9363 1.68346 18.4864 2.21037 19.0352C2.73727 19.5844 3.26589 19.9219 3.8893 20.1741C4.49246 20.4182 5.18135 20.5851 6.18992 20.6331C7.20107 20.6811 7.52376 20.6923 10.098 20.6923C12.6721 20.6923 12.9948 20.6811 14.0056 20.6331C15.0146 20.5851 15.7035 20.4182 16.3066 20.1741C16.93 19.9219 17.4582 19.5844 17.9851 19.0352C18.5124 18.4864 18.8364 17.9363 19.0786 17.287C19.3129 16.6588 19.4732 15.9413 19.5193 14.8908C19.5654 13.8377 19.5762 13.5016 19.5762 10.8205C19.5762 8.13944 19.5654 7.80335 19.5193 6.75021C19.4732 5.69976 19.3129 4.98226 19.0786 4.35405C18.8364 3.70476 18.5124 3.15463 17.9851 2.6054C17.4582 2.05662 16.93 1.71918 16.3066 1.467C15.7035 1.2229 15.0146 1.05597 14.0056 1.00796C12.9948 0.959948 12.6721 0.94873 10.098 0.94873ZM10.1169 5.76709C7.42682 5.76709 5.24597 8.0385 5.24597 10.8403C5.24597 13.6416 7.42682 15.9131 10.1169 15.9131C12.8066 15.9131 14.9874 13.6416 14.9874 10.8403C14.9874 8.0385 12.8066 5.76709 10.1169 5.76709ZM10.1169 14.133C8.37078 14.133 6.95508 12.6589 6.95508 10.8403C6.95508 9.02161 8.37078 7.54712 10.1169 7.54712C11.8631 7.54712 13.2783 9.02161 13.2783 10.8403C13.2783 12.6589 11.8631 14.133 10.1169 14.133ZM16.2661 5.53188C16.2661 6.18118 15.7612 6.70707 15.1378 6.70707C14.5148 6.70707 14.0094 6.18118 14.0094 5.53188C14.0094 4.88304 14.5148 4.35669 15.1378 4.35669C15.7612 4.35669 16.2661 4.88304 16.2661 5.53188Z" fill="black"/>
</svg>
