<svg width="212" height="40" viewBox="0 0 212 40" fill="none" xmlns="http://www.w3.org/2000/svg">
<path fill-rule="evenodd" clip-rule="evenodd" d="M203.941 29.0614V20.3594C203.941 19.0015 205.102 17.7247 206.641 17.7247C208.396 17.7247 208.72 18.9751 208.72 20.5189V29.0614H211.933V19.96C211.933 16.8197 210.421 15.2762 207.586 15.2762C206.209 15.2762 204.858 15.7551 203.941 16.7933V10.566H200.727V29.0614H203.941ZM196.892 25.7615C195.784 26.5598 194.839 26.9056 193.786 26.9056C191.383 26.9056 190.357 25.0692 190.357 22.3017C190.357 19.2681 191.626 17.8046 193.436 17.8046C194.65 17.8046 195.623 18.6029 196.324 19.4544L198.35 17.8046C197.08 15.9686 195.136 15.2762 193.381 15.2762C190.519 15.2762 187.144 17.0862 187.144 22.4352C187.144 26.9591 189.439 29.434 193.408 29.434C195.406 29.434 197.054 28.7424 198.107 27.8905L196.892 25.7615ZM178.259 10.566V25.0164C178.259 26.8788 178.232 29.4336 182.444 29.4336C183.713 29.4336 185.063 29.0614 185.873 28.5026L185.063 26.4535C184.631 26.7193 183.957 27.0123 183.227 27.0123C182.12 27.0123 181.472 26.533 181.472 24.9097V18.1504H185.117V15.6756H181.472V10.566H178.259ZM171.021 24.8301C171.021 25.9742 170.048 27.1451 168.374 27.1451C166.106 27.1451 165.566 25.0428 165.566 22.8346C165.566 19.96 166.43 17.5915 168.995 17.5915C169.832 17.5915 170.616 17.7511 171.021 17.9373V24.8301ZM174.207 16.2073C172.263 15.4889 170.291 15.2762 169.401 15.2762C164.756 15.2762 162.38 18.2567 162.38 22.9409C162.38 26.7465 163.865 29.4072 167.672 29.4072C169.158 29.4072 170.534 28.822 171.372 27.624L171.48 27.6507L171.669 29.061H174.45L174.207 26.5063V16.2073ZM140.478 29.0614V17.9909L140.235 15.6752H142.908L143.178 17.3517C144.069 16.0214 145.393 15.2762 147.094 15.2762C148.795 15.2762 150.091 15.915 150.848 17.4053C151.657 16.0214 153.088 15.2762 154.789 15.2762C157.517 15.2762 159.083 16.8461 159.083 19.9868V29.0614H155.87V20.6252C155.87 19.0554 155.599 17.7247 153.817 17.7247C152.332 17.7247 151.387 18.9487 151.387 20.3322V29.0614H148.174V20.6252C148.174 19.1881 147.985 17.7247 146.122 17.7247C144.609 17.7247 143.691 19.0015 143.691 20.4389V29.0614H140.478Z" fill="#9C9B9B"/>
<path fill-rule="evenodd" clip-rule="evenodd" d="M137.971 29.7544H132.985L129.957 24.1919C129.67 24.2621 129.374 24.3244 129.08 24.3763L129.091 29.7537H124.619V9.05652H129.079V20.68C131.977 19.6693 131.918 16.1966 131.873 15.4642L131.83 14.7926L132.493 14.781H135.952L135.986 15.3759C135.997 15.5934 136.237 20.3905 133.833 22.2733L137.971 29.7544ZM118.12 22.3616C118.12 24.2625 117.742 26.528 115.945 26.528C114.932 26.528 113.769 26.0018 113.769 21.8985C113.769 20.4648 114.059 18.0588 115.998 18.0588C116.986 18.0588 118.12 18.5485 118.12 22.3616ZM116.16 14.3979C112.829 14.3979 109.269 16.4689 109.269 22.2801C109.269 27.3803 111.563 30.1886 115.729 30.1886C119.996 30.1886 122.647 27.0227 122.647 21.9251C122.647 15.3763 118.583 14.3979 116.16 14.3979ZM100.687 26.5277C99.6746 26.5277 98.5118 26.0018 98.5118 21.8985C98.5118 20.4648 98.8013 18.0591 100.741 18.0591C101.729 18.0591 102.862 18.5482 102.862 22.3616C102.862 24.2625 102.485 26.5277 100.687 26.5277ZM100.902 14.3982C97.571 14.3982 94.0114 16.4689 94.0114 22.2801C94.0114 27.3803 96.3059 30.1886 100.472 30.1886C104.739 30.1886 107.389 27.0227 107.389 21.9255C107.389 15.3763 103.325 14.3982 100.902 14.3982ZM83.55 19.4451C83.55 18.5271 84.4349 18.0317 85.2674 18.0317C86.8535 18.0317 87.6579 19.3876 87.6579 22.0619C87.6579 26.6099 85.8179 26.6099 85.2133 26.6099C84.6128 26.6099 83.9997 26.4642 83.55 26.2884V19.4451ZM86.1011 14.3982C85.1807 14.3982 84.2992 14.6052 83.5501 14.9845V9.57371H79.103V28.7519L79.417 28.9337C80.6528 29.6489 83.0871 30.1886 85.0791 30.1886C89.5918 30.1886 92.0772 27.1474 92.0772 21.6254C92.0772 17.0999 89.8438 14.3982 86.1011 14.3982Z" fill="#FF8201"/>
<path fill-rule="evenodd" clip-rule="evenodd" d="M22.5779 21.5358C22.5868 21.1473 22.9117 20.8325 23.2979 20.8487C27.2608 20.9419 30.3942 23.7259 30.5255 23.8444C30.8144 24.1046 30.8373 24.5495 30.5773 24.8382C30.4384 24.9922 30.2465 25.0708 30.0543 25.0708C29.8865 25.0708 29.7183 25.0112 29.5837 24.8903C29.5431 24.8538 26.689 22.3363 23.2648 22.2558C22.8763 22.2467 22.5688 21.9243 22.5779 21.5358ZM22.5779 11.7721C22.5868 11.3832 22.9117 11.0749 23.2979 11.085C27.2608 11.1781 30.3942 13.962 30.5255 14.0806C30.8144 14.3408 30.8373 14.7856 30.5773 15.0744C30.4384 15.2285 30.2465 15.3071 30.0543 15.3071C29.8865 15.3071 29.7183 15.2473 29.5837 15.1264C29.5431 15.0901 26.689 12.5726 23.2648 12.4919C22.8763 12.483 22.5688 12.1606 22.5779 11.7721ZM44.5681 16.8298C44.5773 17.2182 44.2696 17.5408 43.8811 17.5499C40.4494 17.6303 37.5905 20.1589 37.562 20.1844C37.4275 20.3051 37.2593 20.3643 37.0919 20.3643C36.8993 20.3643 36.7075 20.2857 36.5685 20.1311C36.3089 19.8426 36.3318 19.3984 36.6205 19.1384C36.752 19.0199 39.8849 16.2359 43.8483 16.1428C44.2323 16.1372 44.5592 16.4411 44.5681 16.8298ZM36.5685 10.3674C36.3089 10.0787 36.3318 9.63466 36.6205 9.37466C36.752 9.25602 39.8849 6.47215 43.8483 6.37903C44.2323 6.36785 44.5592 6.6774 44.5681 7.0661C44.5773 7.45443 44.2696 7.77683 43.8811 7.78614C40.4494 7.86641 37.5905 10.3951 37.562 10.4206C37.4275 10.5413 37.2593 10.6006 37.0919 10.6006C36.8993 10.6006 36.7075 10.522 36.5685 10.3674ZM32.3451 29.9654C27.5041 26.1823 23.1846 25.8771 20.9565 26.0563V2.56241C25.2632 2.84029 29.3296 4.72457 32.3451 7.84891V29.9654ZM19.8454 37.2897C10.2606 37.2897 2.46295 29.492 2.46295 19.9074C2.46295 10.7777 9.53819 3.26941 18.4936 2.57731V27.4963C18.4936 27.8822 18.6786 28.2449 18.9866 28.4777C19.2943 28.7103 19.6977 28.7846 20.0695 28.6788C20.2984 28.6136 25.4785 27.2315 31.686 32.6137C28.479 35.6038 24.2541 37.2897 19.8454 37.2897ZM34.2835 7.49205C34.2928 7.4833 34.3034 7.47548 34.3136 7.46747C34.4697 7.34641 34.5677 7.16556 34.5833 6.96888C34.5995 6.77238 34.5325 6.57794 34.3984 6.43322C30.6471 2.38435 25.3427 0.0620117 19.8454 0.0620117C8.90253 0.0620117 0 8.96472 0 19.9074C0 30.8501 8.90253 39.7528 19.8454 39.7528C25.1394 39.7528 30.2251 37.6134 33.9463 33.8538C33.9828 33.8422 34.0192 33.8294 34.0551 33.8143C34.5114 33.6221 34.8081 33.1749 34.8081 32.6796V7.5686H34.2184C34.2384 7.54271 34.2581 7.51701 34.2835 7.49205Z" fill="#9C9B9B"/>
<path fill-rule="evenodd" clip-rule="evenodd" d="M30.5255 19.1383C30.8144 19.3985 30.8373 19.8435 30.5773 20.1322C30.4384 20.2862 30.2465 20.3648 30.0543 20.3648C29.8865 20.3648 29.7183 20.3052 29.5837 20.1843C29.5431 20.1478 26.689 17.6303 23.2648 17.5498C22.8763 17.5407 22.5688 17.2183 22.5779 16.8298C22.5868 16.4413 22.9117 16.1353 23.2979 16.1427C27.2608 16.2358 30.3942 19.0199 30.5255 19.1383ZM30.5255 9.37441C30.8144 9.63478 30.8373 10.0795 30.5773 10.3682C30.4384 10.5223 30.2465 10.6009 30.0543 10.6009C29.8865 10.6009 29.7183 10.5413 29.5837 10.4204C29.5431 10.3841 26.689 7.86635 23.2648 7.78589C22.8763 7.77695 22.5688 7.45455 22.5779 7.06603C22.5868 6.67733 22.9117 6.36592 23.2979 6.37878C27.2608 6.4719 30.3942 9.25595 30.5255 9.37441ZM44.568 21.5359C44.5771 21.9243 44.2696 22.2466 43.8811 22.2558C40.4493 22.3362 37.5905 24.8649 37.5618 24.8903C37.4275 25.011 37.2592 25.0704 37.0919 25.0704C36.8993 25.0704 36.7073 24.9916 36.5684 24.8372C36.3089 24.5485 36.3318 24.1045 36.6205 23.8445C36.752 23.7258 39.8849 20.942 43.8481 20.8488C44.2323 20.8341 44.5592 21.147 44.568 21.5359ZM44.568 11.772C44.5771 12.1603 44.2696 12.4829 43.8811 12.492C40.4493 12.5725 37.5905 15.101 37.5618 15.1265C37.4275 15.2472 37.2592 15.3064 37.0919 15.3064C36.8993 15.3064 36.7073 15.2279 36.5684 15.0733C36.3089 14.7848 36.3318 14.3406 36.6205 14.0806C36.752 13.9621 39.8849 11.178 43.8481 11.0849C44.2323 11.0767 44.5592 11.3833 44.568 11.772ZM47.304 37.2896C42.8789 37.2896 38.6704 35.6057 35.4662 32.6144C41.6724 27.2357 46.851 28.6136 47.0723 28.6763C47.4442 28.7872 47.848 28.7162 48.1604 28.4838C48.4722 28.2513 48.656 27.8852 48.656 27.4963V2.58264C57.6107 3.27549 64.6866 10.7782 64.6866 19.9074C64.6866 29.4921 56.8889 37.2896 47.304 37.2896ZM34.8044 7.85238C37.8161 4.73233 41.8953 2.84432 46.193 2.56532V26.0562C43.964 25.8768 39.6449 26.1827 34.8044 29.9654V7.85238ZM47.304 0.0621338C42.1956 0.0621338 37.3041 2.10845 33.5782 5.59038C32.4488 6.64604 32.3415 7.83357 32.3415 7.83357V32.6796C32.3415 33.1748 33.1729 33.8384 33.2122 33.8505C36.934 37.6157 41.9851 39.7528 47.304 39.7528C58.2471 39.7528 67.1496 30.8502 67.1496 19.9074C67.1496 8.96466 58.2471 0.0621338 47.304 0.0621338Z" fill="#FF8201"/>
</svg>
