<svg width="14" height="14" viewBox="0 0 14 14" fill="none" xmlns="http://www.w3.org/2000/svg">
<path fill-rule="evenodd" clip-rule="evenodd" d="M10.6219 9.82656L13.8359 13.0391C14.0547 13.2594 14.0547 13.6156 13.8375 13.8359C13.7266 13.9453 13.5844 14 13.4391 14C13.2937 14 13.15 13.9453 13.0406 13.8359L9.82656 10.6219C8.7875 11.4828 7.45469 12 6 12C2.68594 12 0 9.31406 0 6C0 2.68594 2.68594 0 6 0C9.31406 0 12 2.68594 12 6C12 7.45469 11.4828 8.7875 10.6219 9.82656ZM6 10.875C6.65938 10.875 7.29688 10.7469 7.89687 10.4922C8.47812 10.2469 8.99844 9.89531 9.44687 9.44687C9.89531 8.99844 10.2469 8.47656 10.4922 7.89687C10.7469 7.29688 10.875 6.65938 10.875 6C10.875 5.34062 10.7469 4.70312 10.4922 4.10313C10.2469 3.52344 9.89531 3.00156 9.44687 2.55312C8.99844 2.10469 8.47656 1.75312 7.89687 1.50781C7.29688 1.25312 6.65938 1.125 6 1.125C5.34062 1.125 4.70312 1.25312 4.10313 1.50781C3.52344 1.75312 3.00156 2.10469 2.55312 2.55312C2.10469 3.00156 1.75312 3.52344 1.50781 4.10313C1.25312 4.70312 1.125 5.34062 1.125 6C1.125 6.65938 1.25312 7.29688 1.50781 7.89687C1.75312 8.47656 2.10469 8.99844 2.55312 9.44687C3.00156 9.89531 3.52344 10.2469 4.10313 10.4922C4.70312 10.7469 5.34062 10.875 6 10.875Z" fill="#696969"/>
</svg>
