<svg width="19" height="17" viewBox="0 0 19 17" fill="none" xmlns="http://www.w3.org/2000/svg">
<path id="Mask" fill-rule="evenodd" clip-rule="evenodd" d="M15.9646 3.38715C16.7315 2.88324 17.32 2.08407 17.5961 1.13234C16.878 1.59991 16.0848 1.93824 15.2382 2.12132C14.5627 1.32798 13.5972 0.833496 12.5288 0.833496C10.4789 0.833496 8.81804 2.65933 8.81804 4.911C8.81804 5.23093 8.84863 5.54234 8.91239 5.83984C5.8281 5.66933 3.0932 4.04766 1.26133 1.57882C0.941652 2.18324 0.758982 2.88324 0.758982 3.62991C0.758982 5.04427 1.41427 6.2926 2.41034 7.02491C1.80201 7.00427 1.22945 6.8185 0.727962 6.51516V6.56542C0.727962 8.54157 2.00666 10.1902 3.70713 10.5635C3.39478 10.6591 3.06779 10.7071 2.72786 10.7071C2.48918 10.7071 2.25525 10.6824 2.03035 10.6348C2.50168 12.2543 3.873 13.4348 5.49808 13.4663C4.22671 14.5607 2.62619 15.2118 0.887368 15.2118C0.587943 15.2118 0.291534 15.1943 0.00158691 15.1557C1.64476 16.312 3.59555 16.9873 5.69239 16.9873C12.5214 16.9873 16.2537 10.7735 16.2537 5.38484C16.2537 5.2076 16.2515 5.03125 16.2442 4.8576C16.9693 4.28234 17.6005 3.5635 18.0963 2.74548C17.4303 3.06991 16.7147 3.28933 15.9646 3.38715Z" fill="black"/>
</svg>
