<svg width="29" height="29" viewBox="0 0 29 29" fill="none" xmlns="http://www.w3.org/2000/svg">
<path d="M14.0977 4.58437C11.5312 4.58437 9.38672 6.56367 9.17227 9.10898L9.16523 9.22148L9.1582 9.30586C9.15117 9.3832 9.14766 9.45703 9.14766 9.53438C9.14766 11.5277 10.3359 13.3207 12.1711 14.0977L12.2484 14.1293L12.3293 14.1574L12.5016 14.2207C12.5402 14.2348 12.5824 14.2523 12.6211 14.2664C13.043 14.3965 13.4789 14.4703 13.9254 14.4879L14.0941 14.4914H14.1363C14.291 14.4914 14.4457 14.4809 14.6004 14.4668L14.6672 14.4598L14.7305 14.4492L14.9063 14.4141C14.9695 14.407 15.0293 14.3965 15.0926 14.3859L15.1488 14.3719L15.2086 14.3578L15.3914 14.3121C15.4477 14.298 15.5074 14.284 15.5637 14.2664L15.6094 14.2523L15.6551 14.2348L15.8062 14.1785L15.9152 14.1398L16.0207 14.0977L16.1437 14.0379C16.2176 14.0063 16.2879 13.9746 16.3547 13.9395L16.4566 13.8867L16.5234 13.848C16.643 13.7812 16.759 13.7145 16.868 13.6371C16.9102 13.609 16.9453 13.5809 16.977 13.5563L17.0262 13.5176L17.2441 13.3523C18.3586 12.4277 19.009 11.0953 19.0477 9.675L19.0512 9.54141V9.49219C19.0512 6.80273 16.8293 4.58437 14.0977 4.58437ZM14.0977 3.66328C17.2969 3.66328 19.909 6.23672 19.9688 9.42188V9.53438L19.9652 9.58359C19.9652 11.243 19.227 12.8461 17.9402 13.9641L17.8313 14.0555L17.5957 14.2383C17.5289 14.291 17.4586 14.3473 17.3848 14.3965C17.2934 14.4598 17.1984 14.516 17.107 14.5723L16.9699 14.6531L16.8891 14.7023C16.8082 14.748 16.7238 14.7867 16.643 14.8254L16.5234 14.8781L16.4813 14.8992C16.4461 14.9168 16.4145 14.9309 16.3758 14.9484C16.316 14.973 16.2527 14.9977 16.193 15.0188L16.1016 15.0504L15.975 15.0961C15.9293 15.1137 15.8801 15.1313 15.8344 15.1453L15.7184 15.177L15.6023 15.2051L15.4441 15.2438C15.3879 15.2578 15.3316 15.2754 15.2754 15.2859C15.2191 15.2965 15.1629 15.307 15.1102 15.3141L15.0293 15.3246L14.8852 15.3457C14.8219 15.3563 14.7551 15.3668 14.6883 15.3738C14.5441 15.3879 14.3965 15.3984 14.2453 15.402L14.0941 15.4055H14.0484C13.4648 15.402 12.8918 15.3105 12.3434 15.1383L12.2555 15.1102L12.1676 15.0785L12.0164 15.0258C11.9461 15.0012 11.8723 14.9766 11.8055 14.9449C9.62578 14.0238 8.21953 11.9004 8.21953 9.53438C8.21953 9.46758 8.22305 9.4043 8.22656 9.3375L8.23359 9.23906L8.23711 9.16172C8.4375 6.07852 11.0074 3.66328 14.0977 3.66328ZM14.0625 0.945703C6.8168 0.945703 0.945703 6.8168 0.945703 14.0625C0.945703 17.7434 2.46094 21.0691 4.90078 23.4492C5.51953 20.7316 7.33711 18.3691 9.88945 17.0965L10.0301 17.0262L10.1039 16.991C10.3113 16.8926 10.5258 16.8047 10.7437 16.7203L10.9617 16.6395L11.0566 16.6043C11.1938 16.5586 11.3379 16.5094 11.4855 16.4672C11.6719 16.4145 11.8617 16.3652 12.0551 16.3195C12.1535 16.2984 12.2555 16.2773 12.3539 16.2598L12.491 16.2352L12.6281 16.2105L12.6668 16.2035C12.7582 16.1895 12.8461 16.1754 12.9375 16.1648L13.0746 16.1508L13.2223 16.1367L13.282 16.1332L13.4086 16.1227C13.7707 16.0945 14.1434 16.091 14.5125 16.1086L14.734 16.1191L15.0926 16.1473L15.2473 16.1684L15.3984 16.1895L15.4336 16.193H15.4371L15.4688 16.207L15.6516 16.2352L15.8309 16.2668L15.8801 16.2773C15.9504 16.2914 16.0207 16.302 16.091 16.3195C16.2949 16.3652 16.4918 16.4145 16.6887 16.4707C16.8188 16.5094 16.9453 16.548 17.0684 16.5867C17.2266 16.6395 17.3848 16.6992 17.5395 16.759C17.6344 16.7977 17.7293 16.8363 17.8207 16.875L17.9578 16.9383L18.0141 16.9629C20.6965 18.1969 22.6125 20.6051 23.2629 23.407C25.6816 21.034 27.1793 17.7223 27.1793 14.0625C27.1793 6.8168 21.3082 0.945703 14.0625 0.945703ZM13.616 17.0367L13.4684 17.0473L13.166 17.0719L12.9691 17.0965L12.7723 17.1246L12.7371 17.1316C12.6633 17.1422 12.593 17.1562 12.5191 17.1703C12.4277 17.1879 12.3398 17.2055 12.2484 17.223C12.0762 17.2617 11.9074 17.3074 11.7387 17.3566C11.6473 17.3813 11.5629 17.4094 11.475 17.4375L11.3449 17.4797L11.2676 17.5078C11.0883 17.5711 10.909 17.6414 10.7367 17.7152L10.5645 17.7926L10.5539 17.8031L10.459 17.8383C7.9207 19.0266 6.1418 21.4277 5.69531 24.1629C7.96641 26.0438 10.8809 27.1758 14.059 27.1758C17.2582 27.1758 20.1902 26.0297 22.4648 24.1277C22.0148 21.4277 20.2676 19.0688 17.7539 17.8594L17.6168 17.7961L17.5922 17.7855C17.4621 17.7258 17.3285 17.6695 17.1914 17.6168C17.0508 17.5605 16.9102 17.5078 16.766 17.4621C16.6535 17.4234 16.5375 17.3883 16.4215 17.3566C16.2457 17.3039 16.0664 17.2582 15.8871 17.2195L15.7957 17.202L15.7043 17.1844L15.6516 17.1738L15.4863 17.1457L15.3211 17.1211L15.2156 17.107C15.1559 17.1 15.1066 17.093 15.0574 17.0859L14.9836 17.0754L14.6918 17.0508C14.298 17.0191 13.9605 17.0191 13.616 17.0367ZM14.0625 0C21.8285 0 28.125 6.29648 28.125 14.0625C28.125 21.8285 21.8285 28.125 14.0625 28.125C6.29648 28.125 0 21.8285 0 14.0625C0 6.29648 6.29648 0 14.0625 0Z" fill="#FF8201"/>
</svg>
